# xmcd
#
# Track frame offsets:
# 150
# 19557
# 37485
# 51372
# 66491
# 79449
# 92770
# 105625
# 115758
# 132058
# 148110
#
# Disc length: 2156 seconds
#
#
# Revision: 0
# Processed by: cddbd v1.4PL0 Copyright (c) Steve Scherf et al.
# Submitted via: FreeRIP 2.00 
#
DISCID=a0086a0b
DTITLE=Ray Lashley - Trouble in Paradise
DYEAR=1999
DGENRE=Country
TTITLE0=I'm Still crying
TTITLE1=Smell the roses
TTITLE2=if i listen to my heart
TTITLE3=the deepend
TTITLE4=sometimes you lose
TTITLE5=sneaky bad feeling
TTITLE6=doin it right 
TTITLE7=my heart won't let her go
TTITLE8=trouble in paradise
TTITLE9=doin my best
TTITLE10=should have been smarter
EXTD=
EXTT0=
EXTT1=
EXTT2=
EXTT3=
EXTT4=
EXTT5=
EXTT6=
EXTT7=
EXTT8=
EXTT9=
EXTT10=
PLAYORDER=
